<svg width="188" height="178" viewBox="0 0 188 178" fill="none" xmlns="http://www.w3.org/2000/svg">
<path d="M154.469 9.20359C177.667 25.8216 189.861 55.0981 187.559 83.5413C185.366 110.625 164.781 130.495 143.303 147.14C121.061 164.377 95.8059 182.249 68.394 175.892C40.2847 169.374 22.7124 143.096 11.397 116.552C0.281495 90.4776 -6.18183 59.9209 8.6626 35.7735C22.7473 12.8621 52.8859 10.8436 79.3447 6.02212C105.287 1.29471 133.032 -6.15269 154.469 9.20359Z" fill="#FAB9D0"/>
<path d="M85.6155 74.758C85.7217 74.768 85.809 74.8084 85.8773 74.8791C85.9339 74.9595 85.9573 75.0528 85.9472 75.159L84.9622 85.5765C84.9521 85.6827 84.9122 85.7646 84.8425 85.8223C84.7611 85.8896 84.6673 85.9183 84.5611 85.9082L83.7169 85.8284C83.6107 85.8183 83.5293 85.7731 83.4726 85.6928C83.4043 85.622 83.3751 85.5336 83.3852 85.4274L84.2739 76.0293L78.9855 75.5292C78.8686 75.5182 78.7819 75.4725 78.7252 75.3921C78.6569 75.3214 78.6283 75.2276 78.6393 75.1108L78.6996 74.4736C78.7096 74.3674 78.7553 74.2807 78.8367 74.2134C78.917 74.1567 79.0103 74.1334 79.1165 74.1434L85.6155 74.758Z" fill="black"/>
<path d="M89.1732 75.1257C89.067 75.1157 88.9737 75.139 88.8933 75.1957C88.8226 75.264 88.7822 75.3512 88.7722 75.4574L87.7871 85.875C87.777 85.9812 87.8009 86.0691 87.8585 86.1389C87.9259 86.2202 88.0126 86.2659 88.1188 86.276L88.963 86.3558C89.0692 86.3659 89.1577 86.3367 89.2284 86.2684C89.3088 86.2117 89.354 86.1303 89.364 86.0241L90.2527 76.626L95.5411 77.1261C95.6579 77.1371 95.7517 77.1085 95.8225 77.0402C95.9028 76.9835 95.9485 76.8967 95.9596 76.7799L96.0198 76.1428C96.0299 76.0366 96.0012 75.9428 95.9339 75.8614C95.8656 75.7907 95.7784 75.7503 95.6722 75.7403L89.1732 75.1257Z" fill="black"/>
<path d="M85.9671 71.3336C86.0722 71.3515 86.167 71.3352 86.2513 71.2847C86.327 71.2219 86.3738 71.1379 86.3917 71.0327L88.1522 60.7179C88.1701 60.6127 88.153 60.5232 88.1006 60.4494C88.0396 60.3632 87.9565 60.3112 87.8514 60.2932L87.0154 60.1506C86.9103 60.1326 86.8199 60.1551 86.7443 60.2179C86.6599 60.2684 86.6087 60.3462 86.5908 60.4514L85.0026 69.7568L79.7663 68.8631C79.6506 68.8434 79.555 68.8649 79.4793 68.9278C79.395 68.9783 79.3429 69.0614 79.3232 69.1771L79.2155 69.8079C79.1975 69.9131 79.2191 70.0087 79.2801 70.0949C79.343 70.1706 79.427 70.2174 79.5321 70.2353L85.9671 71.3336Z" fill="black"/>
<path d="M89.6357 72.0823C89.5305 72.0643 89.4465 72.0175 89.3837 71.9419C89.3332 71.8575 89.3169 71.7628 89.3348 71.6576L91.0953 61.3428C91.1133 61.2376 91.1592 61.1589 91.233 61.1066C91.3192 61.0455 91.4148 61.024 91.52 61.0419L92.3559 61.1846C92.461 61.2026 92.5389 61.2537 92.5894 61.3381C92.6522 61.4137 92.6747 61.5041 92.6567 61.6093L91.0685 70.9147L96.3048 71.8084C96.4205 71.8282 96.5036 71.8802 96.5541 71.9646C96.6169 72.0402 96.6385 72.1359 96.6187 72.2515L96.5111 72.8824C96.4931 72.9876 96.4411 73.0707 96.3549 73.1317C96.2705 73.1822 96.1758 73.1985 96.0706 73.1806L89.6357 72.0823Z" fill="black"/>
<path d="M57.8942 98.3845C62.4977 97.5419 66.5927 98.7199 69.9914 101.026L69.5188 102.576C66.2126 100.375 62.4118 99.3388 58.2096 100.108C54.0074 100.877 50.8203 103.193 48.5078 106.422L47.5167 105.139C49.8784 101.779 53.2907 99.2271 57.8942 98.3845Z" fill="black"/>
<path d="M38.7921 69.0787C39.9033 69.2414 40.7509 69.7438 41.3349 70.5861C41.9166 71.4444 42.1248 72.4372 41.9598 73.5645C41.7923 74.7079 41.3081 75.5993 40.5071 76.2387C39.7038 76.8941 38.7466 77.1405 37.6354 76.9778C36.5403 76.8174 35.7007 76.3161 35.1167 75.4739C34.5488 74.6341 34.3498 73.6344 34.5196 72.4749C34.687 71.3315 35.1632 70.4389 35.948 69.7972C36.749 69.1578 37.697 68.9183 38.7921 69.0787ZM58.5762 71.9759C59.6874 72.1386 60.535 72.6411 61.119 73.4833C61.7007 74.3416 61.9089 75.3344 61.7439 76.4617C61.5764 77.6051 61.0922 78.4965 60.2912 79.1359C59.4879 79.7914 58.5307 80.0378 57.4195 79.875C56.3244 79.7147 55.4848 79.2134 54.9008 78.3712C54.3329 77.5313 54.1339 76.5317 54.3037 75.3721C54.4711 74.2287 54.9473 73.3362 55.7321 72.6944C56.5331 72.055 57.4811 71.8155 58.5762 71.9759Z" fill="black"/>
<path d="M47.0146 90.4444L48.0351 83.4758L51.0615 83.9189L50.0409 90.8876L47.0146 90.4444Z" fill="black"/>
</svg>
