<svg width="179" height="177" viewBox="0 0 179 177" fill="none" xmlns="http://www.w3.org/2000/svg">
<path d="M151.997 35.4451C168.123 52.9332 178.801 74.0787 178.543 97.8652C178.244 125.347 174.049 156.845 150.524 171.054C127.282 185.093 99.4429 169.905 73.7334 161.171C47.7229 152.336 17.3165 146.941 5.93685 121.938C-6.25811 95.1444 1.59047 63.2697 18.0723 38.8777C33.8348 15.5503 60.1746 0.739378 88.3189 0.0180161C113.866 -0.636772 134.674 16.6577 151.997 35.4451Z" fill="#9BF7D6"/>
<path d="M97.636 62.36C97.516 63.8 96.964 64.964 95.98 65.852C95.02 66.74 93.676 67.184 91.948 67.184C90.172 67.184 88.828 66.752 87.916 65.888C87.028 65 86.536 63.824 86.44 62.36H88.384C88.504 63.344 88.864 63.968 89.464 64.232C90.064 64.496 90.916 64.628 92.02 64.628C92.956 64.628 93.76 64.484 94.432 64.196C95.128 63.908 95.536 63.296 95.656 62.36H97.636ZM110.979 86.192C112.851 87.272 114.879 87.812 117.062 87.812C119.247 87.812 121.263 87.272 123.111 86.192C124.983 85.112 126.459 83.648 127.539 81.8C128.619 79.952 129.159 77.924 129.159 75.716H131.535C131.535 78.356 130.887 80.792 129.591 83.024C128.295 85.232 126.531 86.984 124.299 88.28C122.091 89.576 119.679 90.224 117.062 90.224C114.447 90.224 112.023 89.576 109.791 88.28C107.583 86.984 105.831 85.232 104.535 83.024C103.239 80.792 102.591 78.356 102.591 75.716H104.967C104.967 77.924 105.507 79.952 106.587 81.8C107.667 83.648 109.131 85.112 110.979 86.192ZM147.699 62.36C147.579 63.8 147.027 64.964 146.043 65.852C145.083 66.74 143.739 67.184 142.011 67.184C140.235 67.184 138.891 66.752 137.979 65.888C137.091 65 136.599 63.824 136.503 62.36H138.447C138.567 63.344 138.927 63.968 139.527 64.232C140.127 64.496 140.979 64.628 142.083 64.628C143.019 64.628 143.823 64.484 144.495 64.196C145.191 63.908 145.599 63.296 145.719 62.36H147.699Z" fill="black"/>
<path d="M97.636 62.36L98.2339 62.4098L98.2881 61.76H97.636V62.36ZM95.98 65.852L95.578 65.4065L95.5726 65.4115L95.98 65.852ZM87.916 65.888L87.4917 66.3123L87.4975 66.318L87.5034 66.3236L87.916 65.888ZM86.44 62.36V61.76H85.7994L85.8413 62.3993L86.44 62.36ZM88.384 62.36L88.9796 62.2874L88.9153 61.76H88.384V62.36ZM89.464 64.232L89.2224 64.7812H89.2224L89.464 64.232ZM94.432 64.196L94.2026 63.6415L94.1957 63.6445L94.432 64.196ZM95.656 62.36V61.76H95.128L95.0609 62.2837L95.656 62.36ZM97.0381 62.3102C96.9295 63.6131 96.4381 64.6304 95.578 65.4066L96.382 66.2974C97.4899 65.2976 98.1025 63.9869 98.2339 62.4098L97.0381 62.3102ZM95.5726 65.4115C94.7552 66.1676 93.5747 66.584 91.948 66.584V67.784C93.7773 67.784 95.2848 67.3124 96.3874 66.2925L95.5726 65.4115ZM91.948 66.584C90.2618 66.584 89.0902 66.1739 88.3286 65.4524L87.5034 66.3236C88.5658 67.3301 90.0822 67.784 91.948 67.784V66.584ZM88.3403 65.4637C87.5722 64.6956 87.1269 63.6654 87.0387 62.3207L85.8413 62.3993C85.9451 63.9826 86.4838 65.3044 87.4917 66.3123L88.3403 65.4637ZM86.44 62.96H88.384V61.76H86.44V62.96ZM87.7884 62.4326C87.9199 63.5108 88.3413 64.3935 89.2224 64.7812L89.7056 63.6828C89.3867 63.5425 89.0881 63.1772 88.9796 62.2874L87.7884 62.4326ZM89.2224 64.7812C89.9335 65.0941 90.8821 65.228 92.02 65.228V64.028C90.9499 64.028 90.1945 63.8979 89.7056 63.6828L89.2224 64.7812ZM92.02 65.228C93.0154 65.228 93.9039 65.0751 94.6684 64.7475L94.1957 63.6445C93.6161 63.8929 92.8966 64.028 92.02 64.028V65.228ZM94.6614 64.7504C95.6086 64.3585 96.1118 63.5228 96.2511 62.4363L95.0609 62.2837C94.9602 63.0692 94.6474 63.4575 94.2026 63.6416L94.6614 64.7504ZM95.656 62.96H97.636V61.76H95.656V62.96ZM110.979 86.192L110.676 86.71L110.679 86.7117L110.979 86.192ZM123.111 86.192L122.811 85.6723L122.808 85.674L123.111 86.192ZM127.539 81.8L127.02 81.4973V81.4973L127.539 81.8ZM129.159 75.716V75.116H128.559V75.716H129.159ZM131.535 75.716H132.135V75.116H131.535V75.716ZM129.59 83.024L130.108 83.3277L130.109 83.3253L129.59 83.024ZM124.299 88.28L123.997 87.7611L123.995 87.7626L124.299 88.28ZM109.791 88.28L109.487 88.7975L109.489 88.7989L109.791 88.28ZM104.535 83.024L104.016 83.3253L104.017 83.3277L104.535 83.024ZM102.59 75.716V75.116H101.99V75.716H102.59ZM104.966 75.716H105.566V75.116H104.966V75.716ZM106.587 81.8L106.068 82.1027L106.587 81.8ZM110.679 86.7117C112.643 87.8449 114.774 88.412 117.062 88.412V87.212C114.983 87.212 113.058 86.6991 111.278 85.6723L110.679 86.7117ZM117.062 88.412C119.351 88.412 121.471 87.8448 123.413 86.71L122.808 85.674C121.054 86.6992 119.142 87.212 117.062 87.212V88.412ZM123.41 86.7117C125.372 85.5801 126.923 84.0417 128.057 82.1027L127.02 81.4973C125.994 83.2543 124.593 84.6439 122.811 85.6723L123.41 86.7117ZM128.057 82.1027C129.192 80.1599 129.758 78.0269 129.758 75.716H128.559C128.559 77.8211 128.045 79.7441 127.02 81.4973L128.057 82.1027ZM129.159 76.316H131.535V75.116H129.159V76.316ZM130.935 75.716C130.935 78.2527 130.313 80.5844 129.072 82.7227L130.109 83.3253C131.46 80.9996 132.135 78.4593 132.135 75.716H130.935ZM129.073 82.7203C127.83 84.8384 126.141 86.5166 123.997 87.7611L124.6 88.7989C126.92 87.4514 128.759 85.6256 130.108 83.3277L129.073 82.7203ZM123.995 87.7626C121.881 89.0033 119.574 89.624 117.062 89.624V90.824C119.783 90.824 122.3 90.1487 124.602 88.7975L123.995 87.7626ZM117.062 89.624C114.551 89.624 112.231 89.0032 110.092 87.7611L109.489 88.7989C111.814 90.1488 114.342 90.824 117.062 90.824V89.624ZM110.094 87.7626C107.975 86.5184 106.296 84.84 105.052 82.7203L104.017 83.3277C105.365 85.624 107.19 87.4496 109.487 88.7975L110.094 87.7626ZM105.053 82.7227C103.812 80.5844 103.191 78.2527 103.191 75.716H101.99C101.99 78.4593 102.665 80.9996 104.016 83.3253L105.053 82.7227ZM102.59 76.316H104.966V75.116H102.59V76.316ZM104.367 75.716C104.367 78.0269 104.933 80.1599 106.068 82.1027L107.105 81.4973C106.08 79.7441 105.566 77.8211 105.566 75.716H104.367ZM106.068 82.1027C107.201 84.0398 108.739 85.578 110.676 86.71L111.281 85.674C109.522 84.646 108.132 83.2562 107.105 81.4973L106.068 82.1027ZM147.699 62.36L148.296 62.4098L148.351 61.76H147.699V62.36ZM146.042 65.852L145.64 65.4065L145.635 65.4115L146.042 65.852ZM137.979 65.888L137.554 66.3123L137.56 66.318L137.566 66.3236L137.979 65.888ZM136.502 62.36V61.76H135.862L135.904 62.3993L136.502 62.36ZM138.446 62.36L139.042 62.2874L138.978 61.76H138.446V62.36ZM139.527 64.232L139.285 64.7812H139.285L139.527 64.232ZM144.494 64.196L144.265 63.6415L144.258 63.6445L144.494 64.196ZM145.718 62.36V61.76H145.191L145.123 62.2837L145.718 62.36ZM147.101 62.3102C146.992 63.6131 146.501 64.6304 145.641 65.4066L146.444 66.2974C147.552 65.2976 148.165 63.9869 148.296 62.4098L147.101 62.3102ZM145.635 65.4115C144.818 66.1676 143.637 66.584 142.011 66.584V67.784C143.84 67.784 145.347 67.3124 146.45 66.2925L145.635 65.4115ZM142.011 66.584C140.324 66.584 139.153 66.1739 138.391 65.4524L137.566 66.3236C138.628 67.3301 140.145 67.784 142.011 67.784V66.584ZM138.403 65.4637C137.635 64.6956 137.189 63.6654 137.101 62.3207L135.904 62.3993C136.008 63.9826 136.546 65.3044 137.554 66.3123L138.403 65.4637ZM136.502 62.96H138.446V61.76H136.502V62.96ZM137.851 62.4326C137.982 63.5108 138.404 64.3935 139.285 64.7812L139.768 63.6828C139.449 63.5425 139.151 63.1772 139.042 62.2874L137.851 62.4326ZM139.285 64.7812C139.996 65.0941 140.945 65.228 142.083 65.228V64.028C141.012 64.028 140.257 63.8979 139.768 63.6828L139.285 64.7812ZM142.083 65.228C143.078 65.228 143.966 65.0751 144.731 64.7475L144.258 63.6445C143.679 63.8929 142.959 64.028 142.083 64.028V65.228ZM144.724 64.7504C145.671 64.3585 146.174 63.5228 146.314 62.4363L145.123 62.2837C145.023 63.0692 144.71 63.4575 144.265 63.6416L144.724 64.7504ZM145.718 62.96H147.699V61.76H145.718V62.96Z" fill="black"/>
</svg>
