<svg width="186" height="181" viewBox="0 0 186 181" fill="none" xmlns="http://www.w3.org/2000/svg">
<path d="M88.9029 0.0118655C117.03 -0.309596 146.05 5.82064 164.378 27.1594C183.454 49.3697 189.49 80.3355 182.26 108.707C175.234 136.276 153.882 156.972 128.184 169.179C102.652 181.307 72.9406 185.282 47.6576 172.642C22.7464 160.188 9.3716 133.94 3.32178 106.754C-2.68619 79.7564 -1.64022 50.4381 15.6609 28.859C32.9294 7.32052 61.2983 0.327353 88.9029 0.0118655Z" fill="#9BDBF7"/>
<path d="M89.152 76.1303L90.7509 76.1891C91.0494 76.2 91.1931 76.3547 91.1822 76.6532C91.1148 78.4866 91.8844 80.2014 93.4908 81.7974C94.2941 82.5955 95.4013 83.2553 96.8124 83.7768C98.2227 84.3196 99.8233 84.6239 101.614 84.6897C103.426 84.7563 105.055 84.5813 106.501 84.1648C107.968 83.749 109.142 83.1731 110.022 82.4369C111.807 80.9228 112.733 79.2597 112.8 77.4475C112.811 77.1491 112.955 77.0049 113.232 77.0151L114.863 77.0751C115.14 77.0852 115.273 77.2396 115.262 77.538C115.168 80.0963 114.039 82.3604 111.874 84.3302C110.792 85.3151 109.366 86.0739 107.596 86.6066C105.825 87.1606 103.842 87.3973 101.646 87.3166C99.4498 87.2359 97.4785 86.854 95.7318 86.1707C94.0055 85.5095 92.6389 84.6481 91.6319 83.5864C89.5752 81.4614 88.5939 79.1198 88.6879 76.5615C88.6988 76.2631 88.8535 76.1193 89.152 76.1303Z" fill="black"/>
<path d="M86.2104 64.6729C85.1634 64.8109 84.2106 64.5612 83.352 63.9239C82.4903 63.2628 81.9904 62.4088 81.8524 61.3619C81.7114 60.2911 81.9729 59.3368 82.6371 58.4988C83.2982 57.6371 84.1522 57.1372 85.1992 56.9993C86.2461 56.8613 87.1886 57.1244 88.0265 57.7887C88.8852 58.4259 89.385 59.28 89.5261 60.3507C89.6641 61.3977 89.4025 62.352 88.7414 63.2138C88.101 64.0486 87.2573 64.535 86.2104 64.6729ZM119.294 66.216C119.175 66.2317 119.008 66.1865 118.792 66.0804L111.979 62.6007C111.762 62.4814 111.598 62.3618 111.488 62.2418C111.378 62.1218 111.311 61.9692 111.286 61.7842L111.242 61.4471C111.218 61.262 111.236 61.0982 111.298 60.9555C111.373 60.8111 111.506 60.6457 111.697 60.4592L117.378 55.3532C117.559 55.1948 117.709 55.1078 117.828 55.0922C117.947 55.0765 118.045 55.104 118.121 55.1746C118.21 55.2302 118.261 55.3175 118.277 55.4365L118.392 56.3089C118.411 56.4544 118.387 56.5785 118.32 56.6815C118.266 56.7828 118.167 56.8967 118.022 57.0234L113.186 61.3523L118.978 64.2806C119.166 64.377 119.299 64.467 119.377 64.5509C119.455 64.6347 119.504 64.7493 119.523 64.8947L119.638 65.7672C119.654 65.8862 119.627 65.9905 119.559 66.0803C119.501 66.1551 119.413 66.2003 119.294 66.216Z" fill="black"/>
<path d="M83.352 63.9239L83.1694 64.162L83.1732 64.1648L83.352 63.9239ZM82.6371 58.4988L82.8723 58.6852L82.8752 58.6814L82.6371 58.4988ZM88.0265 57.7887L87.8401 58.0239L87.8477 58.0295L88.0265 57.7887ZM88.7414 63.2138L88.5034 63.0312L88.5034 63.0312L88.7414 63.2138ZM86.1712 64.3755C85.2025 64.5031 84.3277 64.2745 83.5308 63.683L83.1732 64.1648C84.0935 64.8479 85.1243 65.1186 86.2496 64.9704L86.1712 64.3755ZM83.5346 63.6859C82.734 63.0717 82.2771 62.2883 82.1499 61.3227L81.555 61.4011C81.7037 62.5294 82.2465 63.454 83.1694 64.162L83.5346 63.6859ZM82.1499 61.3227C82.0193 60.3315 82.259 59.4588 82.8722 58.6852L82.402 58.3125C81.6868 59.2148 81.4034 60.2507 81.555 61.4011L82.1499 61.3227ZM82.8752 58.6814C83.4894 57.8808 84.2728 57.4239 85.2384 57.2967L85.16 56.7018C84.0317 56.8505 83.1071 57.3934 82.3991 58.3162L82.8752 58.6814ZM85.2384 57.2967C86.2037 57.1695 87.065 57.4093 87.8402 58.0238L88.2129 57.5536C87.3122 56.8396 86.2886 56.5531 85.16 56.7018L85.2384 57.2967ZM87.8477 58.0295C88.6404 58.6179 89.0981 59.3988 89.2287 60.3899L89.8235 60.3115C89.672 59.1612 89.1299 58.234 88.2053 57.5478L87.8477 58.0295ZM89.2287 60.3899C89.3559 61.3555 89.1176 62.2305 88.5034 63.0312L88.9795 63.3964C89.6874 62.4735 89.9722 61.4398 89.8235 60.3115L89.2287 60.3899ZM88.5034 63.0312C87.9116 63.8026 87.1396 64.2479 86.1712 64.3755L86.2496 64.9704C87.3751 64.822 88.2904 64.2946 88.9795 63.3964L88.5034 63.0312ZM118.792 66.0804L118.656 66.3476L118.66 66.3496L118.792 66.0804ZM111.979 62.6007L111.835 62.8638L111.843 62.8678L111.979 62.6007ZM111.488 62.2418L111.267 62.4444L111.267 62.4444L111.488 62.2418ZM111.298 60.9555L111.032 60.8171L111.027 60.8264L111.023 60.8361L111.298 60.9555ZM111.697 60.4592L111.496 60.2359L111.487 60.2448L111.697 60.4592ZM117.378 55.3532L117.181 55.1274L117.178 55.13L117.378 55.3532ZM118.121 55.1746L117.918 55.3951L117.938 55.4136L117.961 55.4281L118.121 55.1746ZM118.32 56.6815L118.069 56.5177L118.061 56.5288L118.055 56.5405L118.32 56.6815ZM118.022 57.0234L117.825 56.7976L117.822 56.7999L118.022 57.0234ZM113.186 61.3523L112.986 61.1287L112.659 61.4218L113.051 61.62L113.186 61.3523ZM118.978 64.2806L119.116 64.0138L119.114 64.0129L118.978 64.2806ZM119.559 66.0803L119.321 65.8977L119.321 65.8977L119.559 66.0803ZM119.255 65.9186C119.229 65.9219 119.131 65.9128 118.924 65.8112L118.66 66.3496C118.884 66.4602 119.121 66.5414 119.333 66.5134L119.255 65.9186ZM118.928 65.8133L112.115 62.3335L111.843 62.8678L118.656 66.3476L118.928 65.8133ZM112.123 62.3377C111.921 62.2268 111.788 62.1257 111.709 62.0391L111.267 62.4444C111.407 62.5978 111.602 62.736 111.835 62.8637L112.123 62.3377ZM111.709 62.0391C111.647 61.9709 111.601 61.8783 111.584 61.745L110.989 61.8234C111.02 62.0602 111.109 62.2726 111.267 62.4444L111.709 62.0391ZM111.584 61.745L111.539 61.4079L110.945 61.4863L110.989 61.8234L111.584 61.745ZM111.539 61.4079C111.521 61.2659 111.537 61.1585 111.573 61.0749L111.023 60.8361C110.936 61.0378 110.915 61.2581 110.945 61.4863L111.539 61.4079ZM111.564 61.094C111.619 60.9899 111.726 60.8502 111.907 60.6736L111.487 60.2448C111.286 60.4412 111.128 60.6323 111.032 60.8171L111.564 61.094ZM111.897 60.6823L117.579 55.5763L117.178 55.13L111.496 60.2361L111.897 60.6823ZM117.576 55.5789C117.749 55.4273 117.842 55.393 117.867 55.3896L117.789 54.7947C117.577 54.8227 117.369 54.9624 117.181 55.1274L117.576 55.5789ZM117.867 55.3896C117.894 55.3861 117.906 55.3889 117.91 55.3898C117.912 55.3904 117.914 55.391 117.918 55.3951L118.325 54.954C118.173 54.8135 117.981 54.7694 117.789 54.7947L117.867 55.3896ZM117.961 55.4281C117.966 55.4313 117.967 55.4331 117.968 55.435C117.97 55.4379 117.976 55.4493 117.98 55.4757L118.574 55.3973C118.549 55.2051 118.457 55.0317 118.282 54.921L117.961 55.4281ZM117.98 55.4757L118.095 56.3481L118.689 56.2697L118.574 55.3973L117.98 55.4757ZM118.095 56.3481C118.106 56.4369 118.09 56.4859 118.069 56.5177L118.571 56.8453C118.685 56.6712 118.716 56.4718 118.689 56.2697L118.095 56.3481ZM118.055 56.5405C118.026 56.5952 117.958 56.681 117.825 56.7976L118.22 57.2491C118.376 57.1125 118.506 56.9704 118.585 56.8225L118.055 56.5405ZM117.822 56.7999L112.986 61.1287L113.386 61.5758L118.222 57.2469L117.822 56.7999ZM113.051 61.62L118.843 64.5484L119.114 64.0129L113.322 61.0845L113.051 61.62ZM118.841 64.5475C119.019 64.639 119.115 64.7101 119.158 64.7556L119.596 64.3461C119.482 64.224 119.313 64.115 119.116 64.0138L118.841 64.5475ZM119.158 64.7556C119.183 64.7825 119.213 64.8332 119.226 64.9339L119.821 64.8555C119.796 64.6654 119.728 64.4869 119.596 64.3461L119.158 64.7556ZM119.226 64.9339L119.341 65.8064L119.936 65.728L119.821 64.8555L119.226 64.9339ZM119.341 65.8064C119.347 65.8518 119.338 65.8752 119.321 65.8977L119.797 66.2629C119.917 66.1059 119.961 65.9205 119.936 65.728L119.341 65.8064ZM119.321 65.8977C119.32 65.898 119.319 65.9 119.312 65.9034C119.305 65.9074 119.287 65.9143 119.255 65.9186L119.333 66.5134C119.508 66.4903 119.678 66.4169 119.797 66.2629L119.321 65.8977Z" fill="black"/>
</svg>
