<svg width="182" height="186" viewBox="0 0 182 186" fill="none" xmlns="http://www.w3.org/2000/svg">
<path d="M129.953 15.5775C154.501 29.7091 178.836 49.7397 181.251 77.9613C183.602 105.425 160.482 125.941 141.073 145.512C121.877 164.868 101.683 187.493 74.4869 185.618C46.584 183.694 25.4242 160.891 11.5895 136.583C-1.25131 114.021 -3.1957 87.6371 4.63555 62.8864C12.6953 37.4136 28.4259 13.8089 53.4216 4.37268C78.7989 -5.20763 106.444 2.04423 129.953 15.5775Z" fill="#74E8E8"/>
<path d="M30.0336 109.741L30.0208 107.541L48.6005 107.433L48.6133 109.633L30.0336 109.741Z" fill="black"/>
<path d="M49.8859 96.5697C50.5819 96.5735 51.2546 96.4451 51.904 96.1847C52.5536 95.9002 53.0841 95.4471 53.4955 94.8254C53.9069 94.2036 54.1154 93.3768 54.1211 92.3448C54.1267 91.3128 53.9272 90.4957 53.5225 89.8935C53.1179 89.2672 52.5924 88.8204 51.9458 88.5528C51.2993 88.2853 50.628 88.1496 49.932 88.1458C49.236 88.142 48.5752 88.2824 47.9497 88.5669C47.3242 88.8275 46.8059 89.2567 46.3946 89.8545C45.9833 90.4522 45.7749 91.2671 45.7692 92.2991C45.7636 93.3311 45.963 94.1602 46.3676 94.7864C46.7722 95.4126 47.2857 95.8714 47.9081 96.1628C48.5307 96.4302 49.1899 96.5659 49.8859 96.5697ZM19.195 96.4017C19.891 96.4055 20.5637 96.2772 21.2131 96.0168C21.8627 95.7323 22.3932 95.2792 22.8046 94.6574C23.216 94.0357 23.4245 93.2088 23.4301 92.1768C23.4358 91.1448 23.2363 90.3277 22.8315 89.7255C22.427 89.0993 21.9014 88.6524 21.2549 88.3849C20.6083 88.1173 19.937 87.9817 19.2411 87.9778C18.5451 87.974 17.8843 88.1144 17.2587 88.399C16.6333 88.6596 16.1149 89.0888 15.7037 89.6865C15.2924 90.2843 15.0839 91.0991 15.0783 92.1311C15.0726 93.1631 15.2721 93.9922 15.6767 94.6184C16.0812 95.2447 16.5947 95.7035 17.2172 95.9949C17.8397 96.2623 18.499 96.3979 19.195 96.4017Z" fill="black"/>
</svg>
