<svg width="185" height="161" viewBox="0 0 185 161" fill="none" xmlns="http://www.w3.org/2000/svg">
<path d="M94.0738 0.715214C119.741 2.35425 146.698 5.48525 163.197 25.2141C181.489 47.086 189.981 77.5255 180.923 104.561C172.088 130.931 146.06 146.066 119.719 154.983C95.2752 163.256 68.9004 162.578 46.2951 150.131C23.1659 137.395 5.72179 115.802 1.29127 89.7726C-3.22612 63.2327 4.09221 34.9367 23.5145 16.2942C41.7966 -1.25387 68.7843 -0.899728 94.0738 0.715214Z" fill="#FF9999"/>
<path d="M98.3541 57.8554C105.374 57.8938 111.082 60.7691 115.451 65.113L114.323 67.2669C110.062 63.1035 104.748 60.5184 98.3397 60.4833C91.9318 60.4483 86.5899 62.9751 82.2833 67.0916L81.1791 64.9255C85.5947 60.6296 91.3342 57.817 98.3541 57.8554Z" fill="black"/>
<path d="M96.9238 46.9596C97.4651 46.9626 97.9883 46.8628 98.4935 46.6602C98.9987 46.439 99.4113 46.0866 99.7313 45.603C100.051 45.1194 100.213 44.4763 100.218 43.6736C100.222 42.871 100.067 42.2354 99.7523 41.767C99.4376 41.28 99.0288 40.9324 98.5259 40.7243C98.0231 40.5162 97.501 40.4107 96.9597 40.4077C96.4183 40.4048 95.9044 40.514 95.4178 40.7353C94.9314 40.938 94.5282 41.2718 94.2083 41.7367C93.8885 42.2016 93.7263 42.8354 93.7219 43.6381C93.7175 44.4407 93.8727 45.0856 94.1873 45.5726C94.502 46.0597 94.9014 46.4166 95.3855 46.6432C95.8697 46.8512 96.3825 46.9567 96.9238 46.9596Z" fill="black"/>
<path d="M116.655 41.9131C117.351 41.9169 118.023 41.7886 118.673 41.5282C119.322 41.2437 119.853 40.7906 120.264 40.1689C120.676 39.5471 120.884 38.7202 120.89 37.6882C120.896 36.6563 120.696 35.8392 120.291 35.2369C119.887 34.6107 119.361 34.1638 118.715 33.8963C118.068 33.6287 117.397 33.4931 116.701 33.4893C116.005 33.4855 115.344 33.6258 114.719 33.9104C114.093 34.171 113.575 34.6002 113.163 35.1979C112.752 35.7957 112.544 36.6106 112.538 37.6425C112.532 38.6745 112.732 39.5036 113.136 40.1299C113.541 40.7561 114.055 41.2149 114.677 41.5063C115.3 41.7737 115.959 41.9093 116.655 41.9131ZM77.3155 41.6979C78.0115 41.7017 78.6842 41.5734 79.3337 41.3129C79.9832 41.0285 80.5137 40.5754 80.9251 39.9536C81.3365 39.3318 81.545 38.505 81.5507 37.473C81.5563 36.441 81.3568 35.6239 80.9521 35.0217C80.5475 34.3954 80.022 33.9486 79.3754 33.681C78.7289 33.4135 78.0576 33.2778 77.3616 33.274C76.6656 33.2702 76.0048 33.4106 75.3793 33.6952C74.7538 33.9557 74.2355 34.3849 73.8242 34.9827C73.4129 35.5804 73.2045 36.3953 73.1988 37.4273C73.1932 38.4593 73.3926 39.2884 73.7972 39.9146C74.2018 40.5408 74.7153 40.9996 75.3377 41.291C75.9603 41.5585 76.6195 41.6941 77.3155 41.6979Z" fill="black"/>
<path d="M72.6919 56.472C71.3064 58.2628 68.975 58.7797 67.4845 57.6266C65.994 56.4735 65.9088 54.0869 67.2943 52.2961C68.6797 50.5053 71.7279 49.062 73.2184 50.2151C74.7089 51.3682 74.0773 54.6812 72.6919 56.472Z" fill="black"/>
<path d="M71.7923 55.7496C70.9658 56.818 69.5748 57.1264 68.6856 56.4385C67.7963 55.7505 67.7455 54.3267 68.5721 53.2583C69.3987 52.1899 71.2172 51.3288 72.1064 52.0168C72.9957 52.7047 72.6189 54.6812 71.7923 55.7496Z" fill="#F79BAC"/>
</svg>
