<svg width="185" height="165" viewBox="0 0 185 165" fill="none" xmlns="http://www.w3.org/2000/svg">
<path d="M160.493 17.3997C180.685 37.9926 188.437 68.6946 181.936 96.7932C175.544 124.42 154.04 145.593 128.154 157.172C103.599 168.157 75.6233 167.006 51.476 155.151C27.9444 143.598 11.8293 121.958 4.91858 96.671C-2.29348 70.2811 -3.41325 40.0546 14.3309 19.232C31.4587 -0.867264 60.7662 0.478997 87.1714 0.147965C113.585 -0.183176 141.999 -1.46185 160.493 17.3997Z" fill="#BAB9FB"/>
<path d="M21.0155 68.2391C20.8268 69.5274 20.2835 70.5418 19.3855 71.2821C18.5036 72.0248 17.4668 72.3089 16.275 72.1343C15.0833 71.9598 14.1635 71.3892 13.5154 70.4225C12.8835 69.4581 12.6619 68.3318 12.8506 67.0434C13.0416 65.739 13.5861 64.7166 14.4841 63.9763C15.3798 63.252 16.4154 62.976 17.591 63.1482C18.7666 63.3203 19.6796 63.8817 20.33 64.8323C20.978 65.7991 21.2065 66.9347 21.0155 68.2391ZM40.2923 71.0621C40.1036 72.3504 39.5603 73.3647 38.6623 74.1051C37.7804 74.8477 36.7436 75.1318 35.5519 74.9573C34.3601 74.7828 33.4403 74.2122 32.7923 73.2454C32.1604 72.2811 31.9387 71.1547 32.1274 69.8664C32.3184 68.5619 32.8629 67.5395 33.7609 66.7992C34.6566 66.075 35.6922 65.799 36.8678 65.9711C38.0434 66.1433 38.9564 66.7047 39.6068 67.6553C40.2548 68.622 40.4833 69.7576 40.2923 71.0621Z" fill="black"/>
<path d="M21.4043 88.9931L22.9805 88.718C23.2747 88.6666 23.4475 88.788 23.4988 89.0822C23.8144 90.8896 24.9238 92.4067 26.8272 93.6336C27.7789 94.2471 28.9991 94.6621 30.4879 94.8786C31.9803 95.1161 33.6092 95.0808 35.3745 94.7726C37.1608 94.4607 38.7176 93.9507 40.0449 93.2425C41.3932 92.5307 42.4217 91.7231 43.1302 90.8198C44.5609 88.9675 45.1204 87.1481 44.8085 85.3618C44.7571 85.0676 44.8681 84.8966 45.1413 84.849L46.7489 84.5683C47.0221 84.5206 47.1844 84.6438 47.2358 84.938C47.6761 87.4599 47.0426 89.9094 45.3353 92.2864C44.4816 93.4749 43.2446 94.5138 41.624 95.4031C40.0072 96.3134 38.1164 96.9576 35.9518 97.3355C33.7872 97.7134 31.7796 97.7499 29.9289 97.445C28.1029 97.1574 26.587 96.5991 25.3811 95.7702C22.9273 94.1196 21.4803 92.0334 21.04 89.5115C20.9887 89.2173 21.1101 89.0445 21.4043 88.9931Z" fill="black"/>
</svg>
