<svg width="194" height="177" viewBox="0 0 194 177" fill="none" xmlns="http://www.w3.org/2000/svg">
<path d="M105.077 0.569781C131.485 3.05987 156.422 14.0023 172.29 35.2581C189.316 58.0647 198.33 87.1979 190.084 114.438C181.692 142.164 158.274 162.61 130.885 172.046C104.532 181.125 76.296 175.736 52.0453 161.997C27.0896 147.857 4.87365 126.689 0.734716 98.306C-3.43153 69.736 10.5576 41.7329 31.6294 21.9951C51.2118 3.65244 78.3637 -1.94901 105.077 0.569781Z" fill="#FEDEA3"/>
<path d="M126.629 106.493C123.578 106.315 121.932 108.303 121.69 112.456C121.448 116.609 122.853 118.774 125.904 118.952C128.939 119.128 130.577 117.14 130.818 112.987C131.06 108.834 129.663 106.669 126.629 106.493ZM125.743 121.707C123.284 121.564 121.381 120.66 120.035 118.995C118.69 117.33 118.099 115.084 118.264 112.257C118.428 109.429 119.275 107.267 120.805 105.769C122.334 104.272 124.329 103.594 126.789 103.737C129.249 103.88 131.143 104.784 132.473 106.448C133.819 108.113 134.409 110.359 134.245 113.186C134.042 116.668 132.721 119.132 130.281 120.577C130.265 120.576 130.256 120.583 130.255 120.599C130.254 120.631 130.261 120.648 130.277 120.648C132.025 121.455 133.49 122.719 134.672 124.438C134.834 124.688 134.835 124.936 134.677 125.184C134.533 125.448 134.31 125.571 134.006 125.553L132.976 125.493C132.113 125.443 131.433 125.019 130.934 124.221C130.347 123.289 129.703 122.659 129.001 122.329C128.299 122 127.213 121.792 125.743 121.707ZM164.814 108.714C161.763 108.537 160.117 110.524 159.875 114.677C159.634 118.83 161.038 120.996 164.089 121.173C167.124 121.35 168.762 119.361 169.004 115.208C169.246 111.056 167.849 108.891 164.814 108.714ZM163.929 123.928C161.469 123.785 159.566 122.881 158.221 121.216C156.875 119.551 156.285 117.305 156.449 114.478C156.614 111.651 157.461 109.488 158.99 107.991C160.52 106.493 162.514 105.816 164.974 105.959C167.434 106.102 169.329 107.006 170.658 108.67C172.004 110.335 172.595 112.581 172.43 115.408C172.228 118.89 170.906 121.353 168.466 122.798C168.45 122.797 168.442 122.805 168.441 122.821C168.439 122.853 168.446 122.869 168.462 122.87C170.21 123.677 171.675 124.94 172.857 126.66C173.019 126.909 173.021 127.158 172.862 127.405C172.718 127.669 172.495 127.792 172.191 127.775L171.161 127.715C170.299 127.665 169.618 127.24 169.12 126.442C168.533 125.511 167.888 124.88 167.186 124.551C166.484 124.221 165.398 124.014 163.929 123.928Z" fill="black"/>
<path d="M120.035 118.995L119.569 119.372L119.569 119.372L120.035 118.995ZM120.805 105.769L120.385 105.341L120.385 105.341L120.805 105.769ZM132.473 106.448L132.004 106.823L132.006 106.825L132.473 106.448ZM130.281 120.577L130.246 121.176L130.429 121.186L130.586 121.093L130.281 120.577ZM130.277 120.648L130.528 120.104L130.425 120.056L130.311 120.049L130.277 120.648ZM134.672 124.438L135.176 124.112L135.171 124.105L135.166 124.098L134.672 124.438ZM134.677 125.184L134.172 124.86L134.16 124.878L134.15 124.897L134.677 125.184ZM130.934 124.221L131.443 123.903L131.442 123.901L130.934 124.221ZM129.001 122.329L128.746 122.872L128.746 122.872L129.001 122.329ZM126.663 105.894C124.987 105.796 123.612 106.299 122.644 107.468C121.703 108.604 121.215 110.289 121.091 112.421L122.289 112.491C122.406 110.47 122.863 109.085 123.568 108.233C124.246 107.414 125.219 107.012 126.594 107.092L126.663 105.894ZM121.091 112.421C120.967 114.553 121.256 116.284 122.059 117.521C122.885 118.795 124.193 119.453 125.869 119.551L125.939 118.353C124.564 118.273 123.644 117.76 123.066 116.868C122.464 115.94 122.171 114.512 122.289 112.491L121.091 112.421ZM125.869 119.551C127.538 119.648 128.908 119.144 129.872 117.974C130.808 116.838 131.293 115.154 131.417 113.022L130.22 112.952C130.102 114.973 129.648 116.359 128.946 117.211C128.271 118.03 127.304 118.432 125.939 118.353L125.869 119.551ZM131.417 113.022C131.542 110.89 131.255 109.161 130.456 107.923C129.635 106.65 128.333 105.991 126.663 105.894L126.594 107.092C127.959 107.171 128.873 107.683 129.448 108.574C130.047 109.502 130.337 110.931 130.22 112.952L131.417 113.022ZM125.778 121.108C123.459 120.973 121.725 120.131 120.502 118.618L119.569 119.372C121.037 121.189 123.108 122.155 125.709 122.306L125.778 121.108ZM120.502 118.618C119.277 117.102 118.704 115.019 118.863 112.291L117.665 112.222C117.494 115.149 118.102 117.558 119.569 119.372L120.502 118.618ZM118.863 112.291C119.021 109.564 119.832 107.561 121.225 106.198L120.385 105.341C118.718 106.973 117.835 109.295 117.665 112.222L118.863 112.291ZM121.225 106.198C122.615 104.837 124.435 104.201 126.754 104.336L126.824 103.138C124.223 102.987 122.054 103.706 120.385 105.341L121.225 106.198ZM126.754 104.336C129.073 104.471 130.798 105.313 132.004 106.823L132.942 106.074C131.489 104.255 129.424 103.29 126.824 103.138L126.754 104.336ZM132.006 106.825C133.231 108.341 133.804 110.424 133.646 113.151L134.844 113.221C135.014 110.294 134.406 107.885 132.94 106.071L132.006 106.825ZM133.646 113.151C133.452 116.486 132.203 118.741 129.975 120.06L130.586 121.093C133.239 119.522 134.633 116.85 134.844 113.221L133.646 113.151ZM130.316 119.978C130.215 119.972 130.029 119.986 129.864 120.133C129.699 120.28 129.662 120.464 129.656 120.564L130.854 120.634C130.85 120.718 130.818 120.89 130.661 121.03C130.505 121.169 130.33 121.18 130.246 121.176L130.316 119.978ZM129.656 120.564C129.654 120.611 129.649 120.735 129.708 120.872C129.741 120.949 129.801 121.045 129.905 121.124C130.013 121.205 130.133 121.241 130.242 121.247L130.311 120.049C130.412 120.055 130.526 120.089 130.628 120.166C130.726 120.24 130.781 120.33 130.811 120.399C130.862 120.519 130.855 120.619 130.854 120.634L129.656 120.564ZM130.025 121.193C131.667 121.951 133.051 123.14 134.178 124.778L135.166 124.098C133.928 122.297 132.382 120.96 130.528 120.104L130.025 121.193ZM134.168 124.764C134.184 124.789 134.191 124.805 134.193 124.812C134.195 124.819 134.194 124.819 134.194 124.816C134.194 124.812 134.195 124.812 134.194 124.817C134.192 124.822 134.186 124.837 134.172 124.86L135.182 125.508C135.312 125.304 135.396 125.068 135.394 124.808C135.393 124.549 135.306 124.314 135.176 124.112L134.168 124.764ZM134.15 124.897C134.135 124.923 134.124 124.936 134.118 124.943C134.116 124.946 134.114 124.947 134.113 124.948C134.112 124.949 134.112 124.949 134.112 124.949C134.112 124.949 134.111 124.949 134.11 124.949C134.108 124.95 134.106 124.951 134.101 124.952C134.091 124.954 134.072 124.956 134.041 124.954L133.971 126.152C134.214 126.166 134.463 126.126 134.691 126C134.92 125.873 135.087 125.685 135.204 125.47L134.15 124.897ZM134.041 124.954L133.011 124.894L132.941 126.092L133.971 126.152L134.041 124.954ZM133.011 124.894C132.362 124.857 131.849 124.553 131.443 123.903L130.425 124.538C131.016 125.485 131.865 126.03 132.941 126.092L133.011 124.894ZM131.442 123.901C130.818 122.911 130.097 122.18 129.256 121.786L128.746 122.872C129.309 123.137 129.876 123.667 130.427 124.54L131.442 123.901ZM129.256 121.786C128.447 121.407 127.268 121.195 125.778 121.108L125.709 122.306C127.158 122.39 128.15 122.593 128.746 122.872L129.256 121.786ZM158.221 121.216L157.754 121.594L157.754 121.594L158.221 121.216ZM158.99 107.991L158.57 107.562L158.57 107.562L158.99 107.991ZM170.658 108.67L170.19 109.044L170.192 109.047L170.658 108.67ZM168.466 122.798L168.431 123.397L168.614 123.408L168.772 123.314L168.466 122.798ZM168.462 122.87L168.714 122.325L168.61 122.278L168.497 122.271L168.462 122.87ZM172.857 126.66L173.361 126.334L173.357 126.327L173.352 126.32L172.857 126.66ZM172.862 127.405L172.357 127.081L172.345 127.099L172.335 127.119L172.862 127.405ZM169.12 126.442L169.629 126.124L169.627 126.122L169.12 126.442ZM167.186 124.551L166.931 125.094L166.931 125.094L167.186 124.551ZM164.849 108.115C163.173 108.018 161.797 108.52 160.829 109.689C159.888 110.825 159.4 112.51 159.276 114.643L160.474 114.712C160.592 112.691 161.048 111.306 161.753 110.455C162.431 109.636 163.405 109.233 164.779 109.313L164.849 108.115ZM159.276 114.643C159.152 116.775 159.441 118.505 160.244 119.743C161.07 121.016 162.378 121.675 164.054 121.772L164.124 120.574C162.75 120.494 161.829 119.981 161.251 119.09C160.649 118.162 160.357 116.733 160.474 114.712L159.276 114.643ZM164.054 121.772C165.724 121.869 167.093 121.366 168.057 120.196C168.993 119.06 169.479 117.375 169.603 115.243L168.405 115.174C168.287 117.195 167.833 118.581 167.131 119.433C166.457 120.251 165.489 120.654 164.124 120.574L164.054 121.772ZM169.603 115.243C169.727 113.112 169.44 111.382 168.642 110.145C167.82 108.871 166.518 108.212 164.849 108.115L164.779 109.313C166.145 109.393 167.059 109.904 167.633 110.795C168.232 111.723 168.523 113.152 168.405 115.174L169.603 115.243ZM163.964 123.329C161.645 123.195 159.91 122.352 158.687 120.839L157.754 121.594C159.222 123.41 161.294 124.376 163.894 124.527L163.964 123.329ZM158.687 120.839C157.463 119.324 156.889 117.24 157.048 114.513L155.85 114.443C155.68 117.37 156.288 119.779 157.754 121.594L158.687 120.839ZM157.048 114.513C157.207 111.786 158.018 109.783 159.41 108.419L158.57 107.562C156.904 109.194 156.02 111.516 155.85 114.443L157.048 114.513ZM159.41 108.419C160.8 107.058 162.62 106.423 164.939 106.558L165.009 105.36C162.409 105.209 160.24 105.928 158.57 107.562L159.41 108.419ZM164.939 106.558C167.259 106.693 168.983 107.534 170.19 109.044L171.127 108.295C169.674 106.477 167.61 105.511 165.009 105.36L164.939 106.558ZM170.192 109.047C171.417 110.562 171.99 112.646 171.831 115.373L173.029 115.443C173.199 112.516 172.591 110.107 171.125 108.292L170.192 109.047ZM171.831 115.373C171.637 118.708 170.388 120.963 168.161 122.282L168.772 123.314C171.424 121.744 172.818 119.072 173.029 115.443L171.831 115.373ZM168.501 122.199C168.401 122.193 168.214 122.208 168.049 122.355C167.884 122.502 167.848 122.685 167.842 122.786L169.04 122.855C169.035 122.94 169.003 123.112 168.847 123.251C168.69 123.391 168.516 123.402 168.431 123.397L168.501 122.199ZM167.842 122.786C167.839 122.832 167.835 122.957 167.893 123.094C167.927 123.171 167.986 123.267 168.09 123.345C168.198 123.427 168.318 123.463 168.427 123.469L168.497 122.271C168.598 122.277 168.711 122.31 168.813 122.387C168.911 122.461 168.966 122.551 168.996 122.62C169.048 122.741 169.041 122.841 169.04 122.855L167.842 122.786ZM168.211 123.415C169.853 124.173 171.237 125.361 172.363 127L173.352 126.32C172.114 124.519 170.568 123.181 168.714 122.325L168.211 123.415ZM172.354 126.986C172.37 127.011 172.376 127.027 172.379 127.034C172.381 127.04 172.38 127.041 172.38 127.037C172.38 127.034 172.381 127.033 172.379 127.038C172.377 127.044 172.372 127.058 172.357 127.081L173.367 127.729C173.498 127.526 173.582 127.29 173.58 127.03C173.578 126.77 173.492 126.535 173.361 126.334L172.354 126.986ZM172.335 127.119C172.321 127.144 172.31 127.158 172.304 127.164C172.301 127.167 172.299 127.169 172.298 127.169C172.297 127.17 172.297 127.17 172.297 127.17C172.297 127.17 172.297 127.171 172.295 127.171C172.294 127.171 172.291 127.172 172.286 127.173C172.277 127.175 172.258 127.178 172.226 127.176L172.157 128.374C172.399 128.388 172.648 128.347 172.876 128.221C173.105 128.095 173.273 127.906 173.389 127.692L172.335 127.119ZM172.226 127.176L171.196 127.116L171.126 128.314L172.157 128.374L172.226 127.176ZM171.196 127.116C170.547 127.078 170.035 126.775 169.629 126.124L168.611 126.76C169.202 127.706 170.05 128.251 171.126 128.314L171.196 127.116ZM169.627 126.122C169.004 125.133 168.282 124.402 167.441 124.007L166.931 125.094C167.495 125.358 168.062 125.889 168.612 126.762L169.627 126.122ZM167.441 124.007C166.633 123.628 165.454 123.416 163.964 123.329L163.894 124.527C165.343 124.612 166.336 124.814 166.931 125.094L167.441 124.007Z" fill="#F7E5B7"/>
<path d="M147.376 121.152C148.048 120.928 148.656 120.816 149.2 120.816C150.032 120.816 150.68 121.112 151.144 121.704C151.608 122.28 151.968 123.104 152.224 124.176C152.304 124.496 152.464 125.2 152.704 126.288C152.96 127.376 153.168 128.256 153.328 128.928C153.824 131.024 154.272 132.648 154.672 133.8C155.088 134.952 155.744 135.872 156.64 136.56C156.448 137.04 156.128 137.424 155.68 137.712C155.248 138 154.776 138.144 154.264 138.144C153.096 138.144 152.24 137.264 151.696 135.504C151.44 134.688 151.208 133.888 151 133.104C150.44 133.296 149.744 133.392 148.912 133.392C148.096 133.392 147.088 133.304 145.888 133.128C145.392 135.064 145.144 136.52 145.144 137.496C145.144 137.704 145.152 137.856 145.168 137.952C144.96 137.984 144.608 138 144.112 138C143.616 138 143.176 137.848 142.792 137.544C142.424 137.224 142.24 136.776 142.24 136.2C142.24 135.4 143.008 133.056 144.544 129.168C146.08 125.28 147.024 122.608 147.376 121.152ZM146.44 131.112C147.08 131.192 147.728 131.232 148.384 131.232C149.056 131.232 149.768 131.16 150.52 131.016C150.376 130.36 149.888 127.848 149.056 123.48C148.064 126.056 147.192 128.6 146.44 131.112Z" fill="black"/>
<path d="M147.376 121.152L147.281 120.867L147.123 120.92L147.084 121.082L147.376 121.152ZM151.144 121.704L150.908 121.889L150.91 121.892L151.144 121.704ZM152.224 124.176L151.932 124.246L151.933 124.249L152.224 124.176ZM152.704 126.288L152.411 126.353L152.412 126.357L152.704 126.288ZM153.328 128.928L153.62 128.859L153.62 128.859L153.328 128.928ZM154.672 133.8L154.389 133.898L154.39 133.902L154.672 133.8ZM156.64 136.56L156.919 136.671L157.003 136.46L156.823 136.322L156.64 136.56ZM155.68 137.712L155.518 137.46L155.514 137.462L155.68 137.712ZM151.696 135.504L151.983 135.415L151.982 135.414L151.696 135.504ZM151 133.104L151.29 133.027L151.207 132.716L150.903 132.82L151 133.104ZM145.888 133.128L145.932 132.831L145.664 132.792L145.597 133.054L145.888 133.128ZM145.168 137.952L145.214 138.249L145.514 138.202L145.464 137.903L145.168 137.952ZM142.792 137.544L142.595 137.771L142.606 137.779L142.792 137.544ZM144.544 129.168L144.265 129.058L144.265 129.058L144.544 129.168ZM146.44 131.112L146.153 131.026L146.051 131.366L146.403 131.41L146.44 131.112ZM150.52 131.016L150.576 131.311L150.879 131.253L150.813 130.952L150.52 131.016ZM149.056 123.48L149.351 123.424L149.154 122.391L148.776 123.372L149.056 123.48ZM147.471 121.437C148.121 121.22 148.696 121.116 149.2 121.116V120.516C148.616 120.516 147.975 120.636 147.281 120.867L147.471 121.437ZM149.2 121.116C149.951 121.116 150.507 121.378 150.908 121.889L151.38 121.519C150.853 120.846 150.113 120.516 149.2 120.516V121.116ZM150.91 121.892C151.336 122.421 151.682 123.198 151.932 124.246L152.516 124.106C152.254 123.01 151.88 122.139 151.378 121.516L150.91 121.892ZM151.933 124.249C152.012 124.564 152.171 125.264 152.411 126.353L152.997 126.223C152.757 125.136 152.596 124.428 152.515 124.103L151.933 124.249ZM152.412 126.357C152.668 127.445 152.876 128.325 153.036 128.997L153.62 128.859C153.46 128.187 153.252 127.307 152.996 126.219L152.412 126.357ZM153.036 128.997C153.533 131.097 153.984 132.732 154.389 133.898L154.955 133.702C154.56 132.564 154.115 130.951 153.62 128.859L153.036 128.997ZM154.39 133.902C154.824 135.103 155.512 136.072 156.457 136.798L156.823 136.322C155.976 135.672 155.352 134.801 154.954 133.698L154.39 133.902ZM156.361 136.449C156.193 136.869 155.915 137.204 155.518 137.46L155.842 137.964C156.341 137.644 156.703 137.211 156.919 136.671L156.361 136.449ZM155.514 137.462C155.13 137.718 154.716 137.844 154.264 137.844V138.444C154.836 138.444 155.366 138.282 155.846 137.962L155.514 137.462ZM154.264 137.844C153.766 137.844 153.336 137.66 152.961 137.275C152.579 136.882 152.247 136.271 151.983 135.415L151.409 135.593C151.689 136.497 152.057 137.206 152.531 137.693C153.012 138.188 153.594 138.444 154.264 138.444V137.844ZM151.982 135.414C151.728 134.602 151.497 133.807 151.29 133.027L150.71 133.181C150.919 133.969 151.152 134.774 151.41 135.594L151.982 135.414ZM150.903 132.82C150.384 132.998 149.723 133.092 148.912 133.092V133.692C149.765 133.692 150.496 133.594 151.097 133.388L150.903 132.82ZM148.912 133.092C148.116 133.092 147.123 133.006 145.932 132.831L145.844 133.425C147.053 133.602 148.076 133.692 148.912 133.692V133.092ZM145.597 133.054C145.1 134.994 144.844 136.48 144.844 137.496H145.444C145.444 136.56 145.684 135.134 146.179 133.202L145.597 133.054ZM144.844 137.496C144.844 137.706 144.852 137.879 144.872 138.001L145.464 137.903C145.452 137.833 145.444 137.702 145.444 137.496H144.844ZM145.122 137.655C144.939 137.684 144.608 137.7 144.112 137.7V138.3C144.608 138.3 144.981 138.284 145.214 138.249L145.122 137.655ZM144.112 137.7C143.683 137.7 143.308 137.57 142.978 137.309L142.606 137.779C143.044 138.126 143.549 138.3 144.112 138.3V137.7ZM142.989 137.318C142.698 137.065 142.54 136.706 142.54 136.2H141.94C141.94 136.846 142.15 137.383 142.595 137.77L142.989 137.318ZM142.54 136.2C142.54 136.038 142.581 135.77 142.675 135.382C142.769 134.999 142.91 134.517 143.101 133.935C143.482 132.772 144.056 131.22 144.823 129.278L144.265 129.058C143.496 131.004 142.918 132.568 142.531 133.749C142.338 134.339 142.191 134.836 142.093 135.239C141.995 135.637 141.94 135.962 141.94 136.2H142.54ZM144.823 129.278C146.358 125.392 147.31 122.702 147.668 121.222L147.084 121.082C146.738 122.514 145.802 125.168 144.265 129.058L144.823 129.278ZM146.403 131.41C147.055 131.491 147.716 131.532 148.384 131.532V130.932C147.74 130.932 147.105 130.893 146.477 130.814L146.403 131.41ZM148.384 131.532C149.077 131.532 149.808 131.458 150.576 131.311L150.464 130.721C149.728 130.862 149.035 130.932 148.384 130.932V131.532ZM150.813 130.952C150.67 130.301 150.183 127.795 149.351 123.424L148.761 123.536C149.593 127.901 150.082 130.419 150.227 131.08L150.813 130.952ZM148.776 123.372C147.781 125.955 146.907 128.506 146.153 131.026L146.727 131.198C147.477 128.694 148.347 126.157 149.336 123.588L148.776 123.372Z" fill="#F7E5B7"/>
<ellipse cx="124.5" cy="113" rx="4.5" ry="5" fill="black"/>
<ellipse cx="162.5" cy="115" rx="4.5" ry="5" fill="black"/>
</svg>
