<svg width="195" height="188" viewBox="0 0 195 188" fill="none" xmlns="http://www.w3.org/2000/svg">
<path d="M158.726 35.1621C179.078 55.3869 197.675 80.207 194.531 108.727C191.377 137.335 168.376 158.498 143.527 173.021C119.79 186.894 92.1212 192.147 65.8897 183.912C38.4887 175.309 14.4887 156.459 4.73432 129.447C-5.13981 102.103 1.20627 72.0667 16.5949 47.4012C32.0732 22.5921 56.2173 2.74019 85.3511 0.231432C113.745 -2.21366 138.51 15.0734 158.726 35.1621Z" fill="#FAC696"/>
<path d="M81.2239 82.6548C81.5213 82.7414 81.7905 82.882 82.0316 83.0763C82.2923 83.2487 82.5817 83.3775 82.8998 83.463C82.9697 83.584 83.111 83.68 83.3239 83.7508C83.5356 83.8008 83.7675 83.8392 84.0195 83.866C84.2911 83.8707 84.5413 83.8662 84.77 83.8526C85.0196 83.8378 85.2055 83.8059 85.3278 83.7569C85.921 83.5546 86.3344 83.3109 86.5679 83.0257C86.8013 82.7405 86.9982 82.541 87.1584 82.4271C87.1913 82.2791 87.2768 82.1383 87.415 82.0049C87.5532 81.8714 87.6926 81.7588 87.8332 81.667C88.1427 81.6068 88.3947 81.6336 88.5893 81.7472C88.7839 81.8609 88.8678 82.0437 88.841 82.2957C88.8472 82.3997 88.8216 82.4952 88.7641 82.5821C88.7055 82.6482 88.7104 82.7313 88.779 82.8316C88.6824 82.9626 88.5852 83.0831 88.4874 83.1933C88.3896 83.3035 88.2937 83.4448 88.1996 83.6174C88.0444 83.8145 87.938 83.9564 87.8806 84.0433C87.8219 84.1094 87.6727 84.2331 87.4331 84.4143C87.2937 84.5269 87.1732 84.6072 87.0717 84.6549C86.9702 84.7027 86.8387 84.7731 86.6773 84.8662C86.5159 84.9593 86.333 85.0432 86.1288 85.118C85.9453 85.1915 85.7735 85.2852 85.6133 85.3991C85.3125 85.6048 84.945 85.7414 84.5107 85.809C84.096 85.8545 83.6996 85.8572 83.3216 85.8171C82.9435 85.777 82.6162 85.7129 82.3397 85.625C82.084 85.5359 81.9542 85.4601 81.9505 85.3977C81.6985 85.371 81.496 85.2995 81.343 85.1834C81.2095 85.0453 81.0162 84.9524 80.7629 84.9049C80.7151 84.8034 80.6478 84.7239 80.5609 84.6664C80.4948 84.6078 80.4684 84.5154 80.4818 84.3894C80.3264 84.2317 80.1617 84.0954 79.9879 83.9805C79.8129 83.8448 79.6978 83.6638 79.6426 83.4375C79.7194 82.9738 79.888 82.6507 80.1484 82.4683C80.273 82.1061 80.4717 81.9377 80.7445 81.9633C80.9453 82.1809 81.0787 82.3191 81.1448 82.3777C81.2305 82.4144 81.2569 82.5067 81.2239 82.6548ZM111.482 80.8555C111.779 80.9422 112.048 81.0827 112.289 81.277C112.55 81.4494 112.84 81.5783 113.158 81.6637C113.227 81.7848 113.369 81.8807 113.582 81.9515C113.793 82.0015 114.025 82.0399 114.277 82.0667C114.549 82.0714 114.799 82.067 115.028 82.0534C115.277 82.0385 115.463 82.0066 115.586 81.9576C116.179 81.7553 116.592 81.5116 116.826 81.2264C117.059 80.9412 117.256 80.7417 117.416 80.6278C117.449 80.4798 117.535 80.339 117.673 80.2056C117.811 80.0722 117.95 79.9595 118.091 79.8677C118.4 79.8075 118.652 79.8343 118.847 79.9479C119.042 80.0616 119.126 80.2444 119.099 80.4965C119.105 80.6004 119.079 80.6959 119.022 80.7828C118.963 80.8489 118.968 80.9321 119.037 81.0323C118.94 81.1633 118.843 81.2839 118.745 81.394C118.647 81.5042 118.552 81.6456 118.457 81.8181C118.302 82.0152 118.196 82.1572 118.138 82.244C118.08 82.3101 117.931 82.4338 117.691 82.615C117.551 82.7277 117.431 82.8079 117.33 82.8556C117.228 82.9034 117.097 82.9738 116.935 83.0669C116.774 83.16 116.591 83.2439 116.387 83.3187C116.203 83.3922 116.031 83.4859 115.871 83.5998C115.57 83.8055 115.203 83.9421 114.768 84.0097C114.354 84.0552 113.957 84.0579 113.579 84.0178C113.201 83.9777 112.874 83.9137 112.598 83.8257C112.342 83.7366 112.212 83.6608 112.208 83.5984C111.956 83.5717 111.754 83.5003 111.601 83.3841C111.467 83.246 111.274 83.1531 111.021 83.1056C110.973 83.0041 110.906 82.9246 110.819 82.8671C110.753 82.8085 110.726 82.7161 110.74 82.5901C110.584 82.4324 110.42 82.2961 110.246 82.1812C110.071 82.0455 109.956 81.8645 109.9 81.6382C109.977 81.1745 110.146 80.8515 110.406 80.669C110.531 80.3068 110.729 80.1385 111.002 80.164C111.203 80.3816 111.337 80.5198 111.403 80.5784C111.488 80.6151 111.515 80.7074 111.482 80.8555Z" fill="black"/>
<path d="M83.0654 71.0847C82.3707 71.126 81.7077 71.2976 81.0765 71.5996C80.4467 71.9256 79.9467 72.4121 79.5765 73.0592C79.2063 73.7064 79.0518 74.545 79.113 75.5752C79.1743 76.6054 79.4264 77.4078 79.8693 77.9826C80.3136 78.5812 80.867 78.9931 81.5295 79.2182C82.1921 79.4432 82.8707 79.5351 83.5655 79.4938C84.2603 79.4525 84.9105 79.2696 85.5164 78.945C86.1236 78.6445 86.613 78.1826 86.9847 77.5594C87.3564 76.9363 87.5116 76.1096 87.4503 75.0794C87.389 74.0492 87.1362 73.2348 86.6919 72.6361C86.2476 72.0374 85.7054 71.6129 85.0654 71.3624C84.4269 71.1359 83.7602 71.0433 83.0654 71.0847ZM113.703 69.2628C113.008 69.3041 112.345 69.4758 111.714 69.7778C111.084 70.1037 110.584 70.5903 110.214 71.2374C109.844 71.8845 109.689 72.7232 109.75 73.7533C109.812 74.7835 110.064 75.586 110.507 76.1607C110.951 76.7594 111.504 77.1713 112.167 77.3963C112.829 77.6214 113.508 77.7133 114.203 77.672C114.898 77.6306 115.548 77.4477 116.154 77.1232C116.761 76.8226 117.25 76.3607 117.622 75.7376C117.994 75.1144 118.149 74.2877 118.088 73.2576C118.026 72.2274 117.774 71.413 117.329 70.8143C116.885 70.2156 116.343 69.791 115.703 69.5406C115.064 69.3141 114.397 69.2215 113.703 69.2628Z" fill="black"/>
<path d="M100.029 93.6964C104.709 93.722 108.515 95.6389 111.427 98.5348L110.675 99.9707C107.834 97.1952 104.292 95.4717 100.02 95.4484C95.7477 95.425 92.1865 97.1095 89.3154 99.8539L88.5793 98.4098C91.523 95.5459 95.3493 93.6708 100.029 93.6964Z" fill="black"/>
</svg>
